<?xml version="1.0" encoding="UTF-8" standalone="no"?>
<svg
   xmlns:dc="http://purl.org/dc/elements/1.1/"
   xmlns:cc="http://creativecommons.org/ns#"
   xmlns:rdf="http://www.w3.org/1999/02/22-rdf-syntax-ns#"
   xmlns:svg="http://www.w3.org/2000/svg"
   xmlns="http://www.w3.org/2000/svg"
   xmlns:sodipodi="http://sodipodi.sourceforge.net/DTD/sodipodi-0.dtd"
   xmlns:inkscape="http://www.inkscape.org/namespaces/inkscape"
   enable-background="new 0 0 32 32"
   version="1.1"
   viewBox="0 0 16.151001 16.150999"
   xml:space="preserve"
   id="svg13"
   sodipodi:docname="iconfinder_instagram_online_social_media_734394.svg"
   width="16.151001"
   height="16.150999"
   inkscape:version="1.0.2 (e86c870879, 2021-01-15)"><metadata
     id="metadata19"><rdf:RDF><cc:Work
         rdf:about=""><dc:format>image/svg+xml</dc:format><dc:type
           rdf:resource="http://purl.org/dc/dcmitype/StillImage" /><dc:title></dc:title></cc:Work></rdf:RDF></metadata><defs
     id="defs17" /><sodipodi:namedview
     pagecolor="#ffffff"
     bordercolor="#666666"
     borderopacity="1"
     objecttolerance="10"
     gridtolerance="10"
     guidetolerance="10"
     inkscape:pageopacity="0"
     inkscape:pageshadow="2"
     inkscape:window-width="1920"
     inkscape:window-height="1007"
     id="namedview15"
     showgrid="false"
     fit-margin-top="0"
     fit-margin-left="0"
     fit-margin-right="0"
     fit-margin-bottom="0"
     inkscape:zoom="22.34375"
     inkscape:cx="8.076"
     inkscape:cy="8.076"
     inkscape:window-x="0"
     inkscape:window-y="0"
     inkscape:window-maximized="1"
     inkscape:current-layer="Flat_copy" /><g
     id="Flat_copy"
     transform="translate(-7.924,-7.924)"><path
       d="M 22.057,7.924 H 9.943 c -1.14,0 -2.019,0.879 -2.019,2.019 v 12.113 c 0,1.14 0.879,2.019 2.019,2.019 h 12.113 c 1.14,0 2.019,-0.879 2.019,-2.019 V 9.943 C 24.076,8.803 23.196,7.924 22.057,7.924 Z m -6.045,4.903 c 1.791,0 3.243,1.407 3.243,3.142 0,1.735 -1.452,3.142 -3.243,3.142 -1.79,0 -3.242,-1.408 -3.242,-3.142 0,-1.735 1.452,-3.142 3.242,-3.142 z m 6.045,8.725 c 0,0.354 -0.151,0.505 -0.505,0.505 H 10.448 c -0.353,0 -0.505,-0.151 -0.505,-0.505 v -7.066 l 1.258,0.274 c -0.135,0.439 -0.208,0.903 -0.208,1.385 0,2.684 2.248,4.863 5.018,4.863 2.772,0 5.019,-2.178 5.019,-4.863 0,-0.482 -0.073,-0.946 -0.208,-1.385 l 1.234,-0.274 v 7.066 z m 0,-9.085 c 0,0.279 -0.226,0.505 -0.505,0.505 h -2.019 c -0.279,0 -0.505,-0.226 -0.505,-0.505 v -2.019 c 0,-0.279 0.226,-0.505 0.505,-0.505 h 2.019 c 0.279,0 0.505,0.226 0.505,0.505 z"
       fill="#333333"
       id="path10"
       style="fill:#ffffff" /></g></svg>
