<?xml version="1.0" encoding="UTF-8" standalone="no"?>
<svg
   xmlns:dc="http://purl.org/dc/elements/1.1/"
   xmlns:cc="http://creativecommons.org/ns#"
   xmlns:rdf="http://www.w3.org/1999/02/22-rdf-syntax-ns#"
   xmlns:svg="http://www.w3.org/2000/svg"
   xmlns="http://www.w3.org/2000/svg"
   xmlns:sodipodi="http://sodipodi.sourceforge.net/DTD/sodipodi-0.dtd"
   xmlns:inkscape="http://www.inkscape.org/namespaces/inkscape"
   enable-background="new 0 0 32 32"
   version="1.1"
   viewBox="0 0 17.607582 14.572874"
   xml:space="preserve"
   id="svg9"
   sodipodi:docname="iconfinder_twitter_online_social_media_734367.svg"
   width="17.607582"
   height="14.572874"
   inkscape:version="1.0.2 (e86c870879, 2021-01-15)"><metadata
     id="metadata15"><rdf:RDF><cc:Work
         rdf:about=""><dc:format>image/svg+xml</dc:format><dc:type
           rdf:resource="http://purl.org/dc/dcmitype/StillImage" /><dc:title></dc:title></cc:Work></rdf:RDF></metadata><defs
     id="defs13" /><sodipodi:namedview
     pagecolor="#ffffff"
     bordercolor="#666666"
     borderopacity="1"
     objecttolerance="10"
     gridtolerance="10"
     guidetolerance="10"
     inkscape:pageopacity="0"
     inkscape:pageshadow="2"
     inkscape:window-width="1920"
     inkscape:window-height="1007"
     id="namedview11"
     showgrid="false"
     fit-margin-top="0"
     fit-margin-left="0"
     fit-margin-right="0"
     fit-margin-bottom="0"
     inkscape:zoom="22.34375"
     inkscape:cx="9.4307391"
     inkscape:cy="8.0473571"
     inkscape:window-x="0"
     inkscape:window-y="0"
     inkscape:window-maximized="1"
     inkscape:current-layer="Flat_copy" /><g
     id="Flat_copy"
     transform="translate(-6.5692609,-7.9526429)"><path
       d="m 17.599261,8.1248672 c -1.59,0.579 -2.595,2.0709998 -2.481,3.7039998 l 0.038,0.63 -0.636,-0.077 c -2.315,-0.296 -4.338,-1.299 -6.0560001,-2.9839998 l -0.84,-0.836 -0.215,0.617 c -0.458,1.3759998 -0.165,2.8299998 0.789,3.8079998 0.509,0.54 0.394,0.617 -0.483,0.296 -0.305,-0.103 -0.573,-0.18 -0.598,-0.141 -0.089,0.09 0.216,1.26 0.458,1.724 0.331,0.644 1.005,1.273 1.743,1.647 l 0.624,0.296 -0.739,0.011 c -0.712,0 -0.738,0.013 -0.661,0.284 0.254,0.836 1.259,1.724 2.3790001,2.11 l 0.789,0.27 -0.687,0.412 c -1.018,0.593 -2.2140001,0.927 -3.4100001,0.951 -0.573,0.013 -1.044,0.064 -1.044,0.103 0,0.128 1.553,0.848 2.455,1.132 2.7100001,0.836 5.9290001,0.475 8.3460001,-0.952 1.718,-1.016 3.435,-3.036 4.237,-4.992 0.433,-1.041 0.865,-2.945 0.865,-3.858 0,-0.592 0.038,-0.669 0.75,-1.376 0.42,-0.412 0.814,-0.862 0.891,-0.9899998 0.128,-0.245 0.114,-0.245 -0.534,-0.026 -1.081,0.3859998 -1.234,0.3349998 -0.699,-0.244 0.394,-0.412 0.865,-1.158 0.865,-1.376 0,-0.038 -0.191,0.026 -0.407,0.141 -0.229,0.129 -0.738,0.322 -1.12,0.437 l -0.687,0.219 -0.623,-0.426 c -0.344,-0.231 -0.826,-0.489 -1.081,-0.566 -0.65,-0.18 -1.642,-0.154 -2.228,0.052 z"
       fill="#ffffff"
       id="path6" /></g></svg>
